<?xml version="1.0" encoding="UTF-8"?>
<svg width="26px" height="26px" viewBox="0 0 26 26" version="1.1" xmlns="http://www.w3.org/2000/svg" xmlns:xlink="http://www.w3.org/1999/xlink">
    <!-- Generator: Sketch 59.1 (86144) - https://sketch.com -->
    <title>Group</title>
    <desc>Created with Sketch.</desc>
    <g id="Page-1" stroke="none" stroke-width="1" fill="none" fill-rule="evenodd">
        <g id="Vendor_Redeemed_Details@2x" transform="translate(-1301.000000, -17.000000)" fill="#032F41">
            <g id="Group" transform="translate(0.000000, 0.000000)">
                <g transform="translate(1301.000000, 17.000000)">
                    <path d="M19.2573134,2.13970149 L9.24656716,12.1504478 L8.17671642,17.4232836 L13.4495522,16.3534328 L23.4602985,6.34268657 L19.2573134,2.13970149 Z M12.9910448,15.4364179 L9.4758209,16.1241791 L10.1635821,12.6089552 L12.9910448,15.4364179 Z" id="Shape"></path>
                    <path d="M25.1414925,2.67462687 L22.9253731,0.458507463 C22.3904478,-0.0764179104 21.4734328,-0.0764179104 20.8620896,0.458507463 L19.9450746,1.4519403 L24.1480597,5.73134328 L25.1414925,4.73791045 C25.6764179,4.12656716 25.6764179,3.28597015 25.1414925,2.67462687 Z" id="Path"></path>
                    <path d="M3.59164179,3.6680597 L16.1241791,3.6680597 L14.4429851,5.27283582 L3.59164179,5.27283582 C2.52179104,5.27283582 1.60477612,6.18985075 1.60477612,7.25970149 L1.60477612,22.0083582 C1.60477612,23.078209 2.52179104,23.9952239 3.59164179,23.9952239 L18.3402985,23.9952239 C19.4101493,23.9952239 20.3271642,23.078209 20.3271642,22.0083582 L20.3271642,11.1570149 L21.9319403,9.55223881 L21.9319403,22.0083582 C21.9319403,23.9952239 20.3271642,25.6 18.3402985,25.6 L3.59164179,25.6 C1.60477612,25.6 0,23.9952239 0,22.0083582 L0,7.25970149 C0,5.27283582 1.60477612,3.6680597 3.59164179,3.6680597 Z" id="Path" fill-rule="nonzero"></path>
                </g>
            </g>
        </g>
    </g>
</svg>