<?xml version="1.0" encoding="UTF-8"?>
<svg width="27px" height="24px" viewBox="0 0 27 24" version="1.1" xmlns="http://www.w3.org/2000/svg" xmlns:xlink="http://www.w3.org/1999/xlink">
    <!-- Generator: Sketch 58 (84663) - https://sketch.com -->
    <title>google-icon</title>
    <desc>Created with Sketch.</desc>
    <g id="Page-1" stroke="none" stroke-width="1" fill="none" fill-rule="evenodd">
        <g id="Signin@2x" transform="translate(-115.000000, -536.000000)" fill-rule="nonzero">
            <g id="Google-Light" transform="translate(102.000000, 524.000000)">
                <g id="google-icon" transform="translate(13.000000, 12.000000)">
                    <path d="M26.3691079,12.2245196 C26.3691079,11.2412524 26.2793484,10.5237256 26.0850926,9.77963398 L13.4536265,9.77963398 L13.4536265,14.2176189 L20.8680123,14.2176189 C20.7185848,15.3205197 19.9113672,16.9814663 18.117516,18.097558 L18.0923709,18.2461381 L22.086207,20.9963367 L22.3629055,21.0208863 C24.9041002,18.9347183 26.3691079,15.8652831 26.3691079,12.2245196" id="Shape" fill="#4285F4"></path>
                    <path d="M13.4536265,23.9175582 C17.0860541,23.9175582 20.1355084,22.8545047 22.3629055,21.0208863 L18.117516,18.097558 C16.9814549,18.8018023 15.4566762,19.2934359 13.4536265,19.2934359 C9.89591261,19.2934359 6.87634378,17.2073595 5.79995061,14.32397 L5.6421758,14.3358784 L1.4893283,17.192703 L1.43501914,17.3269015 C3.64737037,21.2334054 8.19171788,23.9175582 13.4536265,23.9175582" id="Shape" fill="#34A853"></path>
                    <path d="M5.79995061,14.32397 C5.51593533,13.5798784 5.3515651,12.7825654 5.3515651,11.9587791 C5.3515651,11.1349012 5.51593533,10.3376798 5.78500786,9.59358817 L5.77748496,9.43511488 L1.57259548,6.53239721 L1.43501914,6.59056515 C0.523202311,8.21166445 0,10.032092 0,11.9587791 C0,13.8854662 0.523202311,15.7058022 1.43501914,17.3269015 L5.79995061,14.32397" id="Shape" fill="#FBBC05"></path>
                    <path d="M13.4536265,4.62403072 C15.9798785,4.62403072 17.6839702,5.59401549 18.655661,6.40461094 L22.452562,3.10928257 C20.1206687,1.18259547 17.0860541,0 13.4536265,0 C8.19171788,0 3.64737037,2.68406118 1.43501914,6.59056515 L5.78500786,9.59358817 C6.87634378,6.71019874 9.89591261,4.62403072 13.4536265,4.62403072" id="Shape" fill="#EB4335"></path>
                </g>
            </g>
        </g>
    </g>
</svg>