<?xml version="1.0" encoding="UTF-8"?>
<svg width="76px" height="76px" viewBox="0 0 76 76" version="1.1" xmlns="http://www.w3.org/2000/svg" xmlns:xlink="http://www.w3.org/1999/xlink">
    <!-- Generator: Sketch 59.1 (86144) - https://sketch.com -->
    <title>Group 10</title>
    <desc>Created with Sketch.</desc>
    <defs>
        <polygon id="path-1" points="4.31999987e-05 0.139939196 75.6041737 0.139939196 75.6041737 75.7439689 4.31999987e-05 75.7439689"></polygon>
    </defs>
    <g id="Page-1" stroke="none" stroke-width="1" fill="none" fill-rule="evenodd">
        <g id="Signin@2x" transform="translate(-102.000000, -233.000000)">
            <g id="Group-4" transform="translate(102.000000, 233.000000)">
                <g id="Group-10">
                    <g id="Group-3" transform="translate(0.000000, 0.004176)">
                        <mask id="mask-2" fill="white">
                            <use xlink:href="#path-1"></use>
                        </mask>
                        <g id="Clip-2"></g>
                        <path d="M17.9038507,75.7439689 C8.05669896,75.7439689 4.31999987e-05,67.6873132 4.31999987e-05,57.8401615 L4.31999987e-05,18.0437467 C4.31999987e-05,8.19659496 8.05669896,0.139939196 17.9038507,0.139939196 L57.7002655,0.139939196 C67.5474172,0.139939196 75.6042169,8.19659496 75.6042169,18.0437467 L75.6042169,57.8401615 C75.6042169,67.6873132 67.5474172,75.7439689 57.7002655,75.7439689 L17.9038507,75.7439689 Z" id="Fill-1" fill="#032F41" mask="url(#mask-2)"></path>
                    </g>
                    <path d="M31.3211943,36.7277893 L31.3211943,36.6174853 C34.0345862,35.5099813 35.2532581,33.0186374 35.2532581,29.0327175 L35.2532581,27.4822696 C35.2532581,21.5031018 32.5398662,18.5683818 26.2274824,18.5683818 L17.1913387,18.5683818 L17.1913387,24.1047497 L26.0624584,24.1047497 C28.2205864,24.1047497 29.1632103,25.3227016 29.1632103,28.0915336 L29.1632103,30.2505255 C29.1632103,33.3511334 27.7779304,34.3476134 25.5087784,34.3476134 L17.1913387,34.3476134 L17.1913387,39.8839812 L25.8402664,39.8839812 C28.6092423,39.8839812 29.7708903,40.9914852 29.7708903,44.5897571 L29.7708903,47.967277 C29.7708903,50.8464129 28.6648263,51.7874529 26.6162824,51.7874529 L17.1913387,51.7874529 L17.1913387,57.3238207 L26.6162824,57.3238207 C32.7064742,57.3238207 35.8610821,54.1129088 35.8610821,48.133021 L35.8610821,44.8110851 C35.8610821,40.7147172 34.5884102,37.8352933 31.3211943,36.7277893" id="Fill-4" fill="#FFFFFF"></path>
                    <polygon id="Fill-6" fill="#FFFFFF" points="42.5140259 31.9684886 42.5140259 56.9380879 48.5224258 56.9380879 48.5224258 37.4318485 58.4127775 37.4318485 58.4127775 31.9684886 48.5224258 31.9684886"></polygon>
                    <polygon id="Fill-8" fill="#FFFFFF" points="42.5140259 18.693057 42.5140259 24.1492169 48.5224258 24.1492169 48.5224258 24.1565609 58.4127775 24.1565609 58.4127775 18.693057"></polygon>
                </g>
            </g>
        </g>
    </g>
</svg>