<?xml version="1.0" encoding="UTF-8"?>
<svg width="214px" height="76px" viewBox="0 0 214 76" version="1.1" xmlns="http://www.w3.org/2000/svg" xmlns:xlink="http://www.w3.org/1999/xlink">
    <!-- Generator: Sketch 59.1 (86144) - https://sketch.com -->
    <title>Group 4</title>
    <desc>Created with Sketch.</desc>
    <defs>
        <polygon id="path-1" points="0 0.117305993 30.8995325 0.117305993 30.8995325 64.259996 0 64.259996"></polygon>
        <polygon id="path-3" points="0.105852593 0.117305993 26.7704749 0.117305993 26.7704749 9.28037823 0.105852593 9.28037823"></polygon>
        <polygon id="path-5" points="4.31999987e-05 0.139939196 75.6041737 0.139939196 75.6041737 75.7439689 4.31999987e-05 75.7439689"></polygon>
    </defs>
    <g id="Page-1" stroke="none" stroke-width="1" fill="none" fill-rule="evenodd">
        <g id="Signin@2x" transform="translate(-102.000000, -233.000000)">
            <g id="Group-4" transform="translate(102.000000, 233.000000)">
                <g id="Group-12" transform="translate(99.000000, 6.000000)">
                    <polygon id="Fill-1" fill="#032F41" points="68.3001858 64.26869 78.3772872 64.26869 78.3772872 0.125999992 68.3001858 0.125999992"></polygon>
                    <polygon id="Fill-2" fill="#032F41" points="83.2359351 0.126025192 83.2359351 9.28912263 93.7725584 9.28912263 93.7725584 64.2687152 103.85218 64.2687152 103.85218 9.28912263 114.388677 9.28912263 114.388677 0.126025192"></polygon>
                    <g id="Group-11" transform="translate(0.000000, 0.008694)">
                        <g id="Group-5">
                            <mask id="mask-2" fill="white">
                                <use xlink:href="#path-1"></use>
                            </mask>
                            <g id="Clip-4"></g>
                            <path d="M23.385775,30.1723361 L23.385775,29.9897621 C27.8766667,28.1565883 29.8936746,24.0333645 29.8936746,17.4362569 L29.8936746,14.8703931 C29.8936746,4.97460569 25.4027828,0.117305993 14.9553675,0.117305993 L-7.55999953e-05,0.117305993 L-7.55999953e-05,9.28027743 L14.6823255,9.28027743 C18.2540473,9.28027743 19.8140532,11.2960253 19.8140532,15.878897 L19.8140532,19.4518788 C19.8140532,24.5836065 17.5213573,26.2328204 13.7656756,26.2328204 L-7.55999953e-05,26.2328204 L-7.55999953e-05,35.3959178 L14.3146575,35.3959178 C18.8974032,35.3959178 20.8199111,37.2290917 20.8199111,43.1842293 L20.8199111,48.774219 C20.8199111,53.5395387 18.9893832,55.0968986 15.5988494,55.0968986 L-7.55999953e-05,55.0968986 L-7.55999953e-05,64.259996 L15.5988494,64.259996 C25.6784708,64.259996 30.8995325,58.9456944 30.8995325,49.048647 L30.8995325,43.5505113 C30.8995325,36.7708297 28.7933166,32.00551 23.385775,30.1723361" id="Fill-3" fill="#032F41" mask="url(#mask-2)"></path>
                        </g>
                        <polygon id="Fill-6" fill="#032F41" points="36.7718503 22.381996 36.7718503 64.2599834 46.8488257 64.2599834 46.8488257 31.5450935 63.4364727 31.5450935 63.4364727 22.381996 46.8488257 22.381996"></polygon>
                        <g id="Group-10" transform="translate(36.665998, 0.000000)">
                            <mask id="mask-4" fill="white">
                                <use xlink:href="#path-3"></use>
                            </mask>
                            <g id="Clip-9"></g>
                            <polygon id="Fill-8" fill="#032F41" mask="url(#mask-4)" points="0.105852593 0.117280793 0.105852593 9.26790423 10.182828 9.26790423 10.182828 9.28037823 26.7704749 9.28037823 26.7704749 0.117280793"></polygon>
                        </g>
                    </g>
                </g>
                <g id="Group-10">
                    <g id="Group-3" transform="translate(0.000000, 0.004176)">
                        <mask id="mask-6" fill="white">
                            <use xlink:href="#path-5"></use>
                        </mask>
                        <g id="Clip-2"></g>
                        <path d="M17.9038507,75.7439689 C8.05669896,75.7439689 4.31999987e-05,67.6873132 4.31999987e-05,57.8401615 L4.31999987e-05,18.0437467 C4.31999987e-05,8.19659496 8.05669896,0.139939196 17.9038507,0.139939196 L57.7002655,0.139939196 C67.5474172,0.139939196 75.6042169,8.19659496 75.6042169,18.0437467 L75.6042169,57.8401615 C75.6042169,67.6873132 67.5474172,75.7439689 57.7002655,75.7439689 L17.9038507,75.7439689 Z" id="Fill-1" fill="#032F41" mask="url(#mask-6)"></path>
                    </g>
                    <path d="M31.3211943,36.7277893 L31.3211943,36.6174853 C34.0345862,35.5099813 35.2532581,33.0186374 35.2532581,29.0327175 L35.2532581,27.4822696 C35.2532581,21.5031018 32.5398662,18.5683818 26.2274824,18.5683818 L17.1913387,18.5683818 L17.1913387,24.1047497 L26.0624584,24.1047497 C28.2205864,24.1047497 29.1632103,25.3227016 29.1632103,28.0915336 L29.1632103,30.2505255 C29.1632103,33.3511334 27.7779304,34.3476134 25.5087784,34.3476134 L17.1913387,34.3476134 L17.1913387,39.8839812 L25.8402664,39.8839812 C28.6092423,39.8839812 29.7708903,40.9914852 29.7708903,44.5897571 L29.7708903,47.967277 C29.7708903,50.8464129 28.6648263,51.7874529 26.6162824,51.7874529 L17.1913387,51.7874529 L17.1913387,57.3238207 L26.6162824,57.3238207 C32.7064742,57.3238207 35.8610821,54.1129088 35.8610821,48.133021 L35.8610821,44.8110851 C35.8610821,40.7147172 34.5884102,37.8352933 31.3211943,36.7277893" id="Fill-4" fill="#FFFFFF"></path>
                    <polygon id="Fill-6" fill="#FFFFFF" points="42.5140259 31.9684886 42.5140259 56.9380879 48.5224258 56.9380879 48.5224258 37.4318485 58.4127775 37.4318485 58.4127775 31.9684886 48.5224258 31.9684886"></polygon>
                    <polygon id="Fill-8" fill="#FFFFFF" points="42.5140259 18.693057 42.5140259 24.1492169 48.5224258 24.1492169 48.5224258 24.1565609 58.4127775 24.1565609 58.4127775 18.693057"></polygon>
                </g>
            </g>
        </g>
    </g>
</svg>