<?xml version="1.0" encoding="UTF-8"?>
<svg width="26px" height="26px" viewBox="0 0 26 26" version="1.1" xmlns="http://www.w3.org/2000/svg" xmlns:xlink="http://www.w3.org/1999/xlink">
    <!-- Generator: Sketch 58 (84663) - https://sketch.com -->
    <title>Profile</title>
    <desc>Created with Sketch.</desc>
    <g id="Page-1" stroke="none" stroke-width="1" fill="none" fill-rule="evenodd">
        <g id="BFit_Dashboard@2x" transform="translate(-1301.000000, -17.000000)" fill="#032F41" fill-rule="nonzero">
            <g id="Group" transform="translate(0.000000, 0.000000)">
                <g id="Profile" transform="translate(1301.000000, 17.000000)">
                    <circle id="Oval" cx="12.7170005" cy="11.5090002" r="4.50900018"></circle>
                    <path d="M12.6900005,0.162000006 C5.80500023,0.162000006 0.189000008,5.75100023 0.189000008,12.6630005 C0.189000008,19.5750008 5.80500023,25.164001 12.6900005,25.164001 C19.5750008,25.164001 25.191001,19.5480008 25.191001,12.6630005 C25.191001,5.77800023 19.5750008,0.162000006 12.6900005,0.162000006 Z M20.0340008,20.5470008 C19.1160008,18.0900007 17.1180007,15.4710006 12.6900005,15.4710006 C8.28900033,15.4710006 6.26400025,18.0900007 5.34600021,20.5470008 C3.24000013,18.5760007 1.89000008,15.7680006 1.89000008,12.6630005 C1.89000008,6.72300027 6.72300027,1.86300007 12.6900005,1.86300007 C18.6570007,1.86300007 23.4900009,6.69600027 23.4900009,12.6630005 C23.4900009,15.7680006 22.1400009,18.5760007 20.0340008,20.5470008 Z" id="Shape"></path>
                </g>
            </g>
        </g>
    </g>
</svg>